<svg aria-hidden="true" style="position: absolute; width: 0; height: 0; overflow: hidden;"
  version="1.1"
  xmlns="http://www.w3.org/2000/svg" xmlns:xlink="http://www.w3.org/1999/xlink">
  <defs>
    <symbol id="download" viewBox="0 0 32 32">
      <path fill-rule="evenodd" clip-rule="evenodd"
        d="M11.94.97a.97.97 0 011.94 0V17.8l1.3-1.3a.97.97 0 111.37 1.38l-2.85 2.84c-.21.21-.49.3-.76.29a.97.97 0 01-.75-.29l-2.85-2.84a.97.97 0 111.37-1.38l1.23 1.23V.97zm13.08 10.67c.52 0 .95.42.95.94v7.55A5.87 5.87 0 0120.09 26H5.87A5.87 5.87 0 010 20.13v-7.55a.94.94 0 011.89 0v7.55c0 2.2 1.78 3.98 3.98 3.98H20.1c2.2 0 3.99-1.78 3.99-3.98v-7.55c0-.52.42-.94.94-.94z"
        fill="#fff"></path>
    </symbol>

    <symbol id="spinner3" viewBox="0 0 32 32">
      <path
        d="M12 4c0-2.209 1.791-4 4-4s4 1.791 4 4c0 2.209-1.791 4-4 4s-4-1.791-4-4zM20.485 7.515c0-2.209 1.791-4 4-4s4 1.791 4 4c0 2.209-1.791 4-4 4s-4-1.791-4-4zM26 16c0-1.105 0.895-2 2-2s2 0.895 2 2c0 1.105-0.895 2-2 2s-2-0.895-2-2zM22.485 24.485c0-1.105 0.895-2 2-2s2 0.895 2 2c0 1.105-0.895 2-2 2s-2-0.895-2-2zM14 28c0 0 0 0 0 0 0-1.105 0.895-2 2-2s2 0.895 2 2c0 0 0 0 0 0 0 1.105-0.895 2-2 2s-2-0.895-2-2zM5.515 24.485c0 0 0 0 0 0 0-1.105 0.895-2 2-2s2 0.895 2 2c0 0 0 0 0 0 0 1.105-0.895 2-2 2s-2-0.895-2-2zM4.515 7.515c0 0 0 0 0 0 0-1.657 1.343-3 3-3s3 1.343 3 3c0 0 0 0 0 0 0 1.657-1.343 3-3 3s-3-1.343-3-3zM1.75 16c0-1.243 1.007-2.25 2.25-2.25s2.25 1.007 2.25 2.25c0 1.243-1.007 2.25-2.25 2.25s-2.25-1.007-2.25-2.25z"></path>
    </symbol>
    <symbol id="spinner2" viewBox="0 0 32 32">
      <path
        d="M16 9.472c-1.030 0-1.865-0.835-1.865-1.865v-5.596c0-1.030 0.835-1.865 1.865-1.865s1.865 0.835 1.865 1.865v5.596c0 1.030-0.835 1.865-1.865 1.865z"></path>
      <path
        d="M16 31.155c-0.644 0-1.166-0.522-1.166-1.166v-5.596c0-0.644 0.522-1.166 1.166-1.166s1.166 0.522 1.166 1.166v5.596c0 0.644-0.522 1.166-1.166 1.166z"></path>
      <path
        d="M11.805 10.48c-0.604 0-1.192-0.314-1.516-0.875l-2.798-4.846c-0.483-0.836-0.196-1.906 0.64-2.389s1.906-0.196 2.389 0.64l2.798 4.846c0.483 0.836 0.196 1.906-0.64 2.389-0.275 0.159-0.576 0.235-0.873 0.235z"></path>
      <path
        d="M22.995 29.164c-0.363 0-0.715-0.188-0.91-0.525l-2.798-4.846c-0.29-0.502-0.118-1.143 0.384-1.433s1.143-0.118 1.433 0.384l2.798 4.846c0.29 0.502 0.118 1.143-0.384 1.433-0.165 0.095-0.346 0.141-0.524 0.141z"></path>
      <path
        d="M8.729 13.436c-0.277 0-0.557-0.070-0.814-0.219l-4.846-2.798c-0.781-0.451-1.048-1.449-0.597-2.229s1.449-1.048 2.229-0.597l4.846 2.798c0.781 0.451 1.048 1.449 0.597 2.229-0.302 0.524-0.851 0.816-1.415 0.816z"></path>
      <path
        d="M28.114 23.927c-0.158 0-0.319-0.040-0.465-0.125l-4.846-2.798c-0.446-0.258-0.599-0.828-0.341-1.274s0.828-0.599 1.274-0.341l4.846 2.798c0.446 0.258 0.599 0.828 0.341 1.274-0.173 0.299-0.486 0.466-0.809 0.466z"></path>
      <path
        d="M7.607 17.515h-5.596c-0.837 0-1.516-0.678-1.516-1.515s0.678-1.515 1.516-1.515h5.596c0.837 0 1.516 0.678 1.516 1.515s-0.678 1.515-1.516 1.515z"></path>
      <path
        d="M29.989 16.933c-0 0 0 0 0 0h-5.596c-0.515-0-0.933-0.418-0.933-0.933s0.418-0.933 0.933-0.933c0 0 0 0 0 0h5.596c0.515 0 0.933 0.418 0.933 0.933s-0.418 0.933-0.933 0.933z"></path>
      <path
        d="M3.886 24.394c-0.483 0-0.954-0.251-1.213-0.7-0.386-0.669-0.157-1.525 0.512-1.911l4.846-2.798c0.669-0.387 1.525-0.157 1.911 0.512s0.157 1.525-0.512 1.911l-4.846 2.798c-0.22 0.127-0.461 0.188-0.698 0.188z"></path>
      <path
        d="M23.27 12.736c-0.322 0-0.636-0.167-0.809-0.466-0.258-0.446-0.105-1.016 0.341-1.274l4.846-2.798c0.446-0.257 1.016-0.105 1.274 0.341s0.105 1.016-0.341 1.274l-4.846 2.798c-0.147 0.085-0.307 0.125-0.465 0.125z"></path>
      <path
        d="M9.004 29.397c-0.218 0-0.438-0.055-0.64-0.172-0.613-0.354-0.823-1.138-0.469-1.752l2.798-4.846c0.354-0.613 1.138-0.823 1.752-0.469s0.823 1.138 0.469 1.752l-2.798 4.846c-0.237 0.411-0.668 0.641-1.112 0.641z"></path>
      <path
        d="M20.196 9.664c-0.158 0-0.319-0.040-0.465-0.125-0.446-0.258-0.599-0.828-0.341-1.274l2.798-4.846c0.258-0.446 0.828-0.599 1.274-0.341s0.599 0.828 0.341 1.274l-2.798 4.846c-0.173 0.299-0.486 0.466-0.809 0.466z"></path>
    </symbol>
    <symbol id="spinner1" viewBox="0 0 32 32">
      <path
        d="M16 32c-4.274 0-8.292-1.664-11.314-4.686s-4.686-7.040-4.686-11.314c0-3.026 0.849-5.973 2.456-8.522 1.563-2.478 3.771-4.48 6.386-5.791l1.344 2.682c-2.126 1.065-3.922 2.693-5.192 4.708-1.305 2.069-1.994 4.462-1.994 6.922 0 7.168 5.832 13 13 13s13-5.832 13-13c0-2.459-0.69-4.853-1.994-6.922-1.271-2.015-3.066-3.643-5.192-4.708l1.344-2.682c2.615 1.31 4.824 3.313 6.386 5.791 1.607 2.549 2.456 5.495 2.456 8.522 0 4.274-1.664 8.292-4.686 11.314s-7.040 4.686-11.314 4.686z"></path>
    </symbol>
  </defs>
</svg>