<svg aria-hidden="true" style="position: absolute; width: 0; height: 0; overflow: hidden;"
  version="1.1"
  xmlns="http://www.w3.org/2000/svg" xmlns:xlink="http://www.w3.org/1999/xlink">
  <defs>
    <symbol id="download" viewBox="0 0 28 28">
      <path fill-rule="evenodd" clip-rule="evenodd"
        d="M11.94.97a.97.97 0 011.94 0V17.8l1.3-1.3a.97.97 0 111.37 1.38l-2.85 2.84c-.21.21-.49.3-.76.29a.97.97 0 01-.75-.29l-2.85-2.84a.97.97 0 111.37-1.38l1.23 1.23V.97zm13.08 10.67c.52 0 .95.42.95.94v7.55A5.87 5.87 0 0120.09 26H5.87A5.87 5.87 0 010 20.13v-7.55a.94.94 0 011.89 0v7.55c0 2.2 1.78 3.98 3.98 3.98H20.1c2.2 0 3.99-1.78 3.99-3.98v-7.55c0-.52.42-.94.94-.94z"
        fill="#fff"></path>
    </symbol>

    <symbol id="spinner1" viewBox="0 0 32 32">
      <path
        d="M16 32c-4.274 0-8.292-1.664-11.314-4.686s-4.686-7.040-4.686-11.314c0-3.026 0.849-5.973 2.456-8.522 1.563-2.478 3.771-4.48 6.386-5.791l1.344 2.682c-2.126 1.065-3.922 2.693-5.192 4.708-1.305 2.069-1.994 4.462-1.994 6.922 0 7.168 5.832 13 13 13s13-5.832 13-13c0-2.459-0.69-4.853-1.994-6.922-1.271-2.015-3.066-3.643-5.192-4.708l1.344-2.682c2.615 1.31 4.824 3.313 6.386 5.791 1.607 2.549 2.456 5.495 2.456 8.522 0 4.274-1.664 8.292-4.686 11.314s-7.040 4.686-11.314 4.686z"></path>
    </symbol>

    <symbol id="pdf" viewBox="0 0 300 300">
      <path
        d="M38.658,0h164.23l87.049,86.711v203.227c0,10.679-8.659,19.329-19.329,19.329H38.658
		c-10.67,0-19.329-8.65-19.329-19.329V19.329C19.329,8.65,27.989,0,38.658,0z" />
      <path
        d="M289.658,86.981h-67.372c-10.67,0-19.329-8.659-19.329-19.329V0.193L289.658,86.981z" />
      <path style="fill:#FFFFFF;"
        d="M217.434,146.544c3.238,0,4.823-2.822,4.823-5.557c0-2.832-1.653-5.567-4.823-5.567h-18.44
		c-3.605,0-5.615,2.986-5.615,6.282v45.317c0,4.04,2.3,6.282,5.412,6.282c3.093,0,5.403-2.242,5.403-6.282v-12.438h11.153
		c3.46,0,5.19-2.832,5.19-5.644c0-2.754-1.73-5.49-5.19-5.49h-11.153v-16.903C204.194,146.544,217.434,146.544,217.434,146.544z
		 M155.107,135.42h-13.492c-3.663,0-6.263,2.513-6.263,6.243v45.395c0,4.629,3.74,6.079,6.417,6.079h14.159
		c16.758,0,27.824-11.027,27.824-28.047C183.743,147.095,173.325,135.42,155.107,135.42z M155.755,181.946h-8.225v-35.334h7.413
		c11.221,0,16.101,7.529,16.101,17.918C171.044,174.253,166.25,181.946,155.755,181.946z M106.33,135.42H92.964
		c-3.779,0-5.886,2.493-5.886,6.282v45.317c0,4.04,2.416,6.282,5.663,6.282s5.663-2.242,5.663-6.282v-13.231h8.379
		c10.341,0,18.875-7.326,18.875-19.107C125.659,143.152,117.425,135.42,106.33,135.42z M106.108,163.158h-7.703v-17.097h7.703
		c4.755,0,7.78,3.711,7.78,8.553C113.878,159.447,110.863,163.158,106.108,163.158z" />
    </symbol>

    <symbol id="link" viewBox="0 0 16 16">
      <g clip-path="url(#clip1)" fill="#000">
        <path
          d="M14.9 1.1a3.75 3.75 0 00-5.3 0L6.46 4.23a3.79 3.79 0 000 5.3c.23.24.49.42.76.58l.57-.57c.38-.38.24-.82.24-1.13a1.9 1.9 0 01-.24-2.85l3.13-3.14a1.88 1.88 0 012.66 2.66L11.5 7.15c.06.33.42 1.11.24 2.4l.03-.01L14.9 6.4a3.75 3.75 0 000-5.3z" />
        <path
          d="M9.78 6.22a3.57 3.57 0 00-.76-.57l-.57.57c-.37.38-.24.82-.23 1.13a1.9 1.9 0 01.24 2.85c-.12.1-3.32 3.31-3.38 3.38a1.88 1.88 0 01-2.66-2.66l2.32-2.31c-.06-.33-.42-1.12-.24-2.41l-.02.02L1.1 9.6a3.75 3.75 0 005.3 5.3l3.38-3.38a3.78 3.78 0 000-5.3z" />
      </g>
      <defs>
        <clipPath id="clip1">
          <path fill="#fff" d="M0 0h16v16H0z" />
        </clipPath>
      </defs>
    </symbol>

    <symbol id="close" viewBox="0 0 32 32">
      <path
        d="M16 0c-8.837 0-16 7.163-16 16s7.163 16 16 16 16-7.163 16-16-7.163-16-16-16zM16 29c-7.18 0-13-5.82-13-13s5.82-13 13-13 13 5.82 13 13-5.82 13-13 13z"></path>
      <path d="M21 8l-5 5-5-5-3 3 5 5-5 5 3 3 5-5 5 5 3-3-5-5 5-5z"></path>
    </symbol>
  </defs>
</svg>