<svg aria-hidden="true" style="position: absolute; width: 0; height: 0; overflow: hidden;"
      version="1.1"
      xmlns="http://www.w3.org/2000/svg" xmlns:xlink="http://www.w3.org/1999/xlink">
      <defs>
            <symbol id="logo-default" viewBox="0 0 32 32">
                  <path xmlns="http://www.w3.org/2000/svg" fill="#E74C3C"
                        d="M0 6a6 6 0 016-6h18a6 6 0 016 6v18a6 6 0 01-6 6H6a6 6 0 01-6-6V6z" />
                  <path xmlns="http://www.w3.org/2000/svg" fill="#fff" fill-rule="evenodd"
                        d="M8 9.73A2.7 2.7 0 0110.68 7h7.67a2.7 2.7 0 012.68 2.73v7.42l-2.3-2.35V9.73a.39.39 0 00-.38-.39h-7.67a.39.39 0 00-.38.4v10.53c0 .21.17.39.38.39h7.67c.21 0 .38-.18.38-.4v-1.85l4.5 4.59H10.69A2.7 2.7 0 018 20.27V9.73z"
                        clip-rule="evenodd" />
            </symbol>

            <symbol id="logo-secondary" viewBox="0 0 22 22">
                  <path class="brand-color" fill-rule="evenodd" clip-rule="evenodd"
                        d="M0 3.58537C0 1.60522 1.57657 0 3.52136 0H13.5824C15.5272 0 17.1037 1.60522 17.1037 3.58537V13.3171L14.0854 10.2439V3.58537C14.0854 3.30249 13.8602 3.07317 13.5824 3.07317H3.52136C3.24353 3.07317 3.01831 3.30249 3.01831 3.58537V17.4146C3.01831 17.6975 3.24353 17.9268 3.52136 17.9268H8.55187H13.5824C13.8602 17.9268 14.0854 17.6975 14.0854 17.4146V14.9779L20 21H13.5824H8.55187H3.52136C1.57657 21 0 19.3948 0 17.4146V3.58537Z"
                  ></path>
            </symbol>

            <symbol id="logo-excel" viewBox="0 0 33 33">
                  <path fill-rule="evenodd" clip-rule="evenodd"
                        d="M0 15.16c0-2.464 1.975-4.46 4.41-4.46h13.231c2.436 0 4.41 1.996 4.41 4.46v13.38c0 2.463-1.974 4.46-4.41 4.46H4.411C1.974 33 0 31.003 0 28.54V15.16z"
                        fill="#27AE60" />
                  <path
                        d="M7.52 24.743l2.099-3.099-1.766-2.756a6.027 6.027 0 01-.377-.686 1.443 1.443 0 01-.122-.556c0-.181.079-.343.237-.485a.846.846 0 01.588-.22c.265 0 .47.08.614.239.15.155.354.446.615.873l1.407 2.304 1.503-2.304c.124-.194.229-.36.314-.498.09-.138.175-.252.256-.343a.786.786 0 01.62-.271c.24 0 .433.073.583.22.153.142.23.312.23.51 0 .29-.164.682-.493 1.178l-1.849 2.795 1.99 3.099c.18.272.31.498.39.68.081.176.122.344.122.504a.789.789 0 01-.416.712.907.907 0 01-.448.11.838.838 0 01-.454-.117.938.938 0 01-.3-.278c-.078-.112-.22-.33-.43-.653l-1.65-2.627-1.753 2.704a15.31 15.31 0 01-.294.453c-.056.086-.124.17-.205.252a.897.897 0 01-.678.265.814.814 0 01-.576-.213c-.149-.142-.224-.35-.224-.621 0-.32.156-.71.467-1.171z"
                        fill="#fff" />
                  <path fill-rule="evenodd" clip-rule="evenodd"
                        d="M15.359 1.695h13.23c1.51 0 2.735 1.238 2.735 2.765v13.38c0 1.528-1.224 2.766-2.734 2.766h-5.421V22.3h5.42c2.436 0 4.411-1.996 4.411-4.46V4.46C33 1.997 31.025 0 28.59 0H15.359c-2.436 0-4.41 1.997-4.41 4.46v5.256h1.675V4.46c0-1.527 1.224-2.765 2.735-2.765z"
                        fill="#27AE60" />
                  <path fill-rule="evenodd" clip-rule="evenodd"
                        d="M16.646 6.835c0-.468.375-.847.838-.847h9.049c.463 0 .838.38.838.847a.843.843 0 01-.838.848h-9.05a.843.843 0 01-.837-.848z"
                        fill="#27AE60" />
                  <path fill-rule="evenodd" clip-rule="evenodd"
                        d="M28.59 0C31.025 0 33 1.997 33 4.46v13.38c0 2.464-1.975 4.46-4.41 4.46h-5.421v-1.694h5.42c1.51 0 2.735-1.238 2.735-2.766V4.46c0-1.527-1.224-2.765-2.734-2.765H15.359c-1.51 0-2.735 1.238-2.735 2.765v5.256h-1.676V4.46c0-2.463 1.975-4.46 4.41-4.46H28.59z"
                        fill="#27AE60" />
                  <path fill-rule="evenodd" clip-rule="evenodd"
                        d="M23.349 11.015c0-.468.281-.847.628-.847h2.765c.348 0 .629.38.629.847 0 .468-.281.848-.629.848h-2.765c-.347 0-.628-.38-.628-.848zM23.349 15.195c0-.468.375-.847.838-.847h2.346c.463 0 .838.38.838.847a.843.843 0 01-.838.848h-2.346a.843.843 0 01-.838-.848z"
                        fill="#27AE60" />
            </symbol>

            <symbol id="logo-word" viewBox="0 0 33 33">
                  <path
                        d="M0 15.257c0-2.497 2-4.52 4.469-4.52h13.07c2.469 0 4.47 2.023 4.47 4.52v13.222c0 2.497-2.001 4.521-4.47 4.521H4.47C2 33 0 30.976 0 28.48V15.256z"
                        fill="#2980B9" />
                  <path
                        d="M7.925 26.018l-1.74-8.332a.622.622 0 01.119-.511.553.553 0 01.465-.229c.212 0 .403.072.571.216.168.134.27.309.306.524L8.96 25.13c0 .01.004.014.013.014s.013-.005.013-.014l1.316-7.432a.965.965 0 01.305-.537.874.874 0 01.585-.215h.345c.222 0 .416.071.585.215.168.143.27.322.305.537l1.316 7.432c0 .01.004.014.013.014s.013-.005.013-.014l1.316-7.472a.833.833 0 01.292-.51.873.873 0 01.558-.203.54.54 0 01.451.229.514.514 0 01.12.484l-1.754 8.36a.911.911 0 01-.332.537.91.91 0 01-.584.201h-.28a.874.874 0 01-.584-.215.966.966 0 01-.306-.537l-1.315-7.432c0-.01-.004-.014-.013-.014s-.013.005-.013.014l-1.316 7.432a.873.873 0 01-.305.538.875.875 0 01-.585.215h-.279a.964.964 0 01-.598-.202.936.936 0 01-.318-.538z"
                        fill="#fff" />
                  <path fill-rule="evenodd" clip-rule="evenodd"
                        d="M15.359 1.695h13.23c1.51 0 2.735 1.239 2.735 2.767v13.384c0 1.528-1.224 2.766-2.734 2.766h-5.421v1.696h5.42c2.436 0 4.411-1.998 4.411-4.462V4.462C33 1.997 31.025 0 28.59 0H15.359c-2.436 0-4.41 1.997-4.41 4.462v5.257h1.675V4.462c0-1.528 1.224-2.767 2.735-2.767z"
                        fill="#2980B9" />
                  <path fill-rule="evenodd" clip-rule="evenodd"
                        d="M16.646 6.838c0-.469.375-.848.838-.848h9.049c.463 0 .838.38.838.848a.843.843 0 01-.838.847h-9.05a.843.843 0 01-.837-.847z"
                        fill="#2980B9" />
                  <path fill-rule="evenodd" clip-rule="evenodd"
                        d="M28.59 0C31.025 0 33 1.997 33 4.462v13.384c0 2.464-1.975 4.462-4.41 4.462h-5.421v-1.696h5.42c1.51 0 2.735-1.238 2.735-2.766V4.462c0-1.528-1.224-2.767-2.734-2.767H15.359c-1.51 0-2.735 1.239-2.735 2.767v5.257h-1.676V4.462c0-2.465 1.975-4.462 4.41-4.462H28.59z"
                        fill="#2980B9" />
                  <path fill-rule="evenodd" clip-rule="evenodd"
                        d="M23.349 11.019c0-.468.281-.848.628-.848h2.765c.348 0 .629.38.629.848 0 .468-.281.847-.629.847h-2.765c-.347 0-.628-.38-.628-.847zM23.349 15.2c0-.468.375-.847.838-.847h2.346c.463 0 .838.38.838.847a.843.843 0 01-.838.848h-2.346a.843.843 0 01-.838-.848z"
                        fill="#2980B9" />
            </symbol>

            <symbol id="logo-ppt" viewBox="0 0 33 33">
                  <path
                        d="M0 15.239c0-2.5 2-4.525 4.469-4.525h13.07c2.469 0 4.47 2.026 4.47 4.525v13.236c0 2.499-2.001 4.525-4.47 4.525H4.47C2 33 0 30.974 0 28.475V15.239z"
                        fill="#D35400" />
                  <path
                        d="M9.377 18.344v3.49c0 .07.039.115.118.133.445.062.843.093 1.192.093.77 0 1.359-.168 1.77-.505.41-.345.616-.836.616-1.473 0-.637-.201-1.12-.603-1.446-.402-.337-.996-.505-1.783-.505-.42 0-.817.027-1.192.08-.079.018-.118.062-.118.133zm-.21 8.228a.691.691 0 01-.511.212.691.691 0 01-.511-.212.709.709 0 01-.21-.518V17.92c0-.212.07-.403.21-.57a.74.74 0 01.524-.28c.743-.07 1.46-.106 2.15-.106 1.205 0 2.118.261 2.738.783.62.514.931 1.248.931 2.204 0 2.167-1.223 3.251-3.67 3.251a14.5 14.5 0 01-1.336-.053c-.07 0-.105.035-.105.106v2.8c0 .204-.07.376-.21.518z"
                        fill="#fff" />
                  <path fill-rule="evenodd" clip-rule="evenodd"
                        d="M15.359 1.697h13.23c1.51 0 2.735 1.24 2.735 2.769v13.398c0 1.53-1.224 2.77-2.734 2.77h-5.421v1.696h5.42c2.436 0 4.411-2 4.411-4.466V4.466C33 2 31.025 0 28.59 0H15.359c-2.436 0-4.41 2-4.41 4.466v5.263h1.675V4.466c0-1.53 1.224-2.77 2.735-2.77z"
                        fill="#D35400" />
                  <path fill-rule="evenodd" clip-rule="evenodd"
                        d="M16.646 6.844c0-.468.375-.848.838-.848h9.049c.463 0 .838.38.838.848a.843.843 0 01-.838.849h-9.05a.843.843 0 01-.837-.849z"
                        fill="#D35400" />
                  <path fill-rule="evenodd" clip-rule="evenodd"
                        d="M28.59 0C31.025 0 33 2 33 4.466v13.398c0 2.467-1.975 4.466-4.41 4.466h-5.421v-1.697h5.42c1.51 0 2.735-1.24 2.735-2.769V4.466c0-1.53-1.224-2.77-2.734-2.77H15.359c-1.51 0-2.735 1.24-2.735 2.77v5.263h-1.676V4.466C10.948 2 12.923 0 15.358 0H28.59z"
                        fill="#D35400" />
                  <path fill-rule="evenodd" clip-rule="evenodd"
                        d="M23.349 11.03c0-.469.281-.849.628-.849h2.765c.348 0 .629.38.629.849s-.281.848-.629.848h-2.765c-.347 0-.628-.38-.628-.848zM23.349 15.216c0-.469.375-.849.838-.849h2.346c.463 0 .838.38.838.849a.843.843 0 01-.838.848h-2.346a.843.843 0 01-.838-.848z"
                        fill="#D35400" />
            </symbol>

            <symbol id="logo-jpg" viewBox="0 0 33 33">
                  <path
                        d="M0 15.239c0-2.5 2-4.525 4.469-4.525h13.07c2.469 0 4.47 2.026 4.47 4.525v13.236c0 2.499-2.001 4.525-4.47 4.525H4.47C2 33 0 30.974 0 28.475V15.239z"
                        fill="#9B59B6" />
                  <path
                        d="M7.045 21.221l-2.564 3.396a.354.354 0 00.277.568h12.526c.291 0 .454-.34.274-.572l-4.447-5.73a.346.346 0 00-.544-.005l-3.098 3.837a.346.346 0 01-.53.013L7.583 21.2a.346.346 0 00-.537.021z"
                        fill="#fff" />
                  <path fill-rule="evenodd" clip-rule="evenodd"
                        d="M15.359 1.697h13.23c1.51 0 2.735 1.24 2.735 2.769v13.398c0 1.53-1.224 2.77-2.734 2.77h-5.421v1.696h5.42c2.436 0 4.411-2 4.411-4.466V4.466C33 2 31.025 0 28.59 0H15.359c-2.436 0-4.41 2-4.41 4.466v5.263h1.675V4.466c0-1.53 1.224-2.77 2.735-2.77z"
                        fill="#9B59B6" />
                  <path fill-rule="evenodd" clip-rule="evenodd"
                        d="M16.646 6.844c0-.468.375-.848.838-.848h9.049c.463 0 .838.38.838.848a.843.843 0 01-.838.849h-9.05a.843.843 0 01-.837-.849z"
                        fill="#9B59B6" />
                  <path fill-rule="evenodd" clip-rule="evenodd"
                        d="M28.59 0C31.025 0 33 2 33 4.466v13.398c0 2.467-1.975 4.466-4.41 4.466h-5.421v-1.697h5.42c1.51 0 2.735-1.24 2.735-2.769V4.466c0-1.53-1.224-2.77-2.734-2.77H15.359c-1.51 0-2.735 1.24-2.735 2.77v5.263h-1.676V4.466C10.948 2 12.923 0 15.358 0H28.59z"
                        fill="#9B59B6" />
                  <path fill-rule="evenodd" clip-rule="evenodd"
                        d="M23.349 11.03c0-.469.281-.849.628-.849h2.765c.348 0 .629.38.629.849s-.281.848-.629.848h-2.765c-.347 0-.628-.38-.628-.848zM23.349 15.216c0-.469.375-.849.838-.849h2.346c.463 0 .838.38.838.849a.843.843 0 01-.838.848h-2.346a.843.843 0 01-.838-.848z"
                        fill="#9B59B6" />
            </symbol>

            <symbol id="logo-openoffice" viewBox="0 0 33 33">
                  <path
                        d="M0 15.239c0-2.5 2-4.525 4.469-4.525h13.07c2.469 0 4.47 2.026 4.47 4.525v13.236c0 2.499-2.001 4.525-4.47 4.525H4.47C2 33 0 30.974 0 28.475V15.239z"
                        fill="#3498DB" />
                  <path
                        d="M18.82 20.252l-.014-.006a7.777 7.777 0 00-3.013-.604 7.792 7.792 0 00-4.574 1.478 7.786 7.786 0 00-3.225-.696c-1.633 0-3.15.503-4.41 1.364l-.012.01a.117.117 0 00-.045.092c0 .065.052.119.117.119a.111.111 0 00.022-.003l.015-.004a7.815 7.815 0 012.28-.34c2.106 0 3.984.505 5.397 1.851l.01.01a.115.115 0 00.166-.014l.069-.097c1.436-1.988 3.803-2.968 6.437-2.968a8.05 8.05 0 01.729.033.118.118 0 00.116-.119.117.117 0 00-.065-.106z"
                        fill="#fff" />
                  <path fill-rule="evenodd" clip-rule="evenodd"
                        d="M15.359 1.697h13.23c1.51 0 2.735 1.24 2.735 2.769v13.398c0 1.53-1.224 2.77-2.734 2.77h-5.421v1.696h5.42c2.436 0 4.411-2 4.411-4.466V4.466C33 2 31.025 0 28.59 0H15.359c-2.436 0-4.41 2-4.41 4.466v5.263h1.675V4.466c0-1.53 1.224-2.77 2.735-2.77z"
                        fill="#3498DB" />
                  <path fill-rule="evenodd" clip-rule="evenodd"
                        d="M16.646 6.844c0-.468.375-.848.838-.848h9.049c.463 0 .838.38.838.848a.843.843 0 01-.838.849h-9.05a.843.843 0 01-.837-.849z"
                        fill="#3498DB" />
                  <path fill-rule="evenodd" clip-rule="evenodd"
                        d="M28.59 0C31.025 0 33 2 33 4.466v13.398c0 2.467-1.975 4.466-4.41 4.466h-5.421v-1.697h5.42c1.51 0 2.735-1.24 2.735-2.769V4.466c0-1.53-1.224-2.77-2.734-2.77H15.359c-1.51 0-2.735 1.24-2.735 2.77v5.263h-1.676V4.466C10.948 2 12.923 0 15.358 0H28.59z"
                        fill="#3498DB" />
                  <path fill-rule="evenodd" clip-rule="evenodd"
                        d="M23.349 11.03c0-.469.281-.849.628-.849h2.765c.348 0 .629.38.629.849s-.281.848-.629.848h-2.765c-.347 0-.628-.38-.628-.848zM23.349 15.216c0-.469.375-.849.838-.849h2.346c.463 0 .838.38.838.849a.843.843 0 01-.838.848h-2.346a.843.843 0 01-.838-.848z"
                        fill="#3498DB" />
            </symbol>

      </defs>
</svg>